<svg xmlns="http://www.w3.org/2000/svg" width="95" height="95" viewBox="0 0 95 95"><path fill="#753F00" d="M90.137 48.021l-36.146-2.564 32.226-15.676-.875-1.799-31.446 15.297 26.416-22.914-1.311-1.511-27.072 23.484L63.764 8.082l-4.727-1.633-7.699 22.285 1.669-23.518-4.988-.354-2.566 36.148L29.777 8.785l-1.798.875 15.298 31.45L20.36 14.692l-1.511 1.311 24.922 28.729-1.547-.109L7.591 32.658l-.653 1.891 27.577 9.526-29.299-2.079-.354 4.988 36.146 2.565L8.784 65.224l.875 1.798 31.45-15.298L14.69 74.641l1.311 1.511 27.066-23.479-11.831 34.244 4.727 1.633 7.698-22.282-1.669 23.516 4.988.354 2.565-36.144 15.676 32.224 1.799-.875-15.296-31.444 22.913 26.414 1.511-1.311-24.921-28.729 1.547.11 34.633 11.965.653-1.891-27.578-9.527 29.301 2.08z"/></svg>