<svg xmlns="http://www.w3.org/2000/svg" width="95" height="95" viewBox="0 0 95 95"><path fill="#753F00" d="M78.984 13.095l2.994-6.322-65.796 22.728-.838 4.237 17.219 15.2-19.542 16.995 2.161.813 62.169 21.482 2.471-4.237-23.937-21.133 23.099-49.763zM45.85 53.999L74.771 16.74 54.268 61.43l-8.418-7.431zm6.24 12.178l-3.182 6.934-14.109-4.875 7.979-10.279 9.312 8.22zm-7.743-13.505l-6.45-5.695 33.51-29.166-27.06 34.861zm-22.48-19.845l48.475-16.746-33.975 29.547-14.5-12.801zm12.225 17.461l7.184 6.341-8.475 10.917-13.27-4.585 14.561-12.673zm32.947 29.086L50.818 73.77l2.871-6.182 13.35 11.786z"/></svg>